<?xml version="1.0" encoding="UTF-8"?>
<svg width="225px" height="40px" viewBox="0 0 225 40" version="1.1" xmlns="http://www.w3.org/2000/svg" xmlns:xlink="http://www.w3.org/1999/xlink">
    <!-- Generator: Sketch 58 (84663) - https://sketch.com -->
    <title>danish/danish-blue-medium</title>
    <desc>Created with Sketch.</desc>
    <g id="Subscription-assets" stroke="none" stroke-width="1" fill="none" fill-rule="evenodd">
        <g id="Betal-Med-MobilePay-Copy" transform="translate(-21.000000, -94.000000)">
            <g id="danish/danish-blue-medium" transform="translate(21.000000, 94.000000)">
                <rect id="Background" fill="#5A78FF" x="0" y="0" width="225" height="40" rx="4"></rect>
                <path d="M49.56,25 L44.328,25 C44.253333,25 44.186667,24.970667 44.128,24.912 C44.069333,24.853333 44.04,24.7813338 44.04,24.696 L44.04,14.424 C44.04,14.3386662 44.069333,14.266667 44.128,14.208 C44.186667,14.149333 44.253333,14.12 44.328,14.12 L49.528,14.12 C50.4773381,14.12 51.2773301,14.4133304 51.928,15 C52.5786699,15.5866696 52.904,16.3119957 52.904,17.176 C52.904,17.6026688 52.8160009,17.9999982 52.64,18.368 C52.4639991,18.7360018 52.2106683,19.053332 51.88,19.32 C51.8373331,19.3626669 51.816,19.4079998 51.816,19.456 C51.816,19.5040002 51.8373331,19.5439998 51.88,19.576 C52.3280022,19.8213346 52.6719988,20.1386647 52.912,20.528 C53.1520012,20.9173353 53.272,21.3466643 53.272,21.816 C53.272,22.7333379 52.9226702,23.4933303 52.224,24.096 C51.5253298,24.6986697 50.6373387,25 49.56,25 Z M46.552,18.6 L49.288,18.6 C49.6826686,18.6 50.0079987,18.4720013 50.264,18.216 C50.5200013,17.9599987 50.648,17.6400019 50.648,17.256 C50.648,16.8613314 50.5173346,16.5493345 50.256,16.32 C49.9946654,16.0906655 49.6453355,15.976 49.208,15.976 L46.552,15.976 C46.4666662,15.976 46.4000002,15.9999998 46.352,16.048 C46.3039998,16.0960002 46.28,16.1626662 46.28,16.248 L46.28,18.344 C46.28,18.4293338 46.3039998,18.4933331 46.352,18.536 C46.4000002,18.5786669 46.4666662,18.6 46.552,18.6 Z M46.552,23.128 L49.448,23.128 C49.8853355,23.128 50.2533318,22.9893347 50.552,22.712 C50.8506682,22.4346653 51,22.0986686 51,21.704 C51,21.3306648 50.8560014,21.010668 50.568,20.744 C50.28,20.477332 49.9173355,20.344 49.48,20.344 L46.552,20.344 C46.4666662,20.344 46.4000002,20.3653331 46.352,20.408 C46.3039998,20.4506669 46.28,20.5146662 46.28,20.6 L46.28,22.872 C46.28,22.9573338 46.3013331,23.0213331 46.344,23.064 C46.3866669,23.1066669 46.4559995,23.128 46.552,23.128 Z M62.136,22.856 C61.869332,23.5600035 61.3813369,24.1279978 60.672,24.56 C59.9626631,24.9920022 59.170671,25.208 58.296,25.208 C57.0906606,25.208 56.0960039,24.8133373 55.312,24.024 C54.5279961,23.2346627 54.136,22.2320061 54.136,21.016 C54.136,19.7999939 54.535996,18.7866707 55.336,17.976 C56.136,17.1653293 57.1333274,16.76 58.328,16.76 C59.5120059,16.76 60.4959961,17.1679959 61.28,17.984 C62.0640039,18.8000041 62.456,19.8213272 62.456,21.048 C62.456,21.2293342 62.426667,21.3626662 62.368,21.448 C62.309333,21.5333338 62.2160006,21.576 62.088,21.576 L56.584,21.576 C56.5199997,21.576 56.4720002,21.5946665 56.44,21.632 C56.4079998,21.6693335 56.3973333,21.7199997 56.408,21.784 C56.4613336,22.242669 56.6719982,22.6213318 57.04,22.92 C57.4080018,23.2186682 57.8479974,23.368 58.36,23.368 C58.6586682,23.368 58.9386654,23.3093339 59.2,23.192 C59.4090677,23.0981329 59.5959465,22.9701339 59.7606398,22.8080004 L59.88,22.68 C59.9653338,22.5839995 60.0479996,22.5173335 60.128,22.48 C60.2080004,22.4426665 60.2959995,22.424 60.392,22.424 L61.864,22.424 C61.9920006,22.424 62.0799998,22.4639996 62.128,22.544 C62.1760002,22.6240004 62.1786669,22.7279994 62.136,22.856 Z M56.472,20.056 C56.4506666,20.130667 56.4506666,20.1866665 56.472,20.224 C56.4933334,20.2613335 56.5359997,20.28 56.6,20.28 L59.976,20.28 C60.0293336,20.28 60.0693332,20.2666668 60.096,20.24 C60.1226668,20.2133332 60.1306667,20.1680003 60.12,20.104 C60.0346662,19.6666645 59.821335,19.3066681 59.48,19.024 C59.138665,18.7413319 58.7440022,18.6 58.296,18.6 C57.8693312,18.6 57.485335,18.7359986 57.144,19.008 C56.802665,19.2800014 56.5786672,19.6293312 56.472,20.056 Z M67.864,25.08 L67.784,25.08 C66.5999941,25.08 65.7200029,24.8106694 65.144,24.272 C64.5679971,23.7333306 64.28,22.9146722 64.28,21.816 L64.28,19.112 C64.28,19.0266662 64.2533336,18.9573336 64.2,18.904 C64.1466664,18.8506664 64.0773338,18.824 63.992,18.824 L63.432,18.824 C63.3466662,18.824 63.274667,18.794667 63.216,18.736 C63.157333,18.677333 63.128,18.610667 63.128,18.536 L63.128,17.272 C63.128,17.1866662 63.1599997,17.114667 63.224,17.056 C63.2880003,16.997333 63.357333,16.968 63.432,16.968 L63.992,16.968 C64.0773338,16.968 64.1466664,16.938667 64.2,16.88 C64.2533336,16.821333 64.28,16.754667 64.28,16.68 L64.28,15.304 C64.28,15.2186662 64.309333,15.146667 64.368,15.088 C64.426667,15.029333 64.493333,15 64.568,15 L66.152,15 C66.2373338,15 66.309333,15.029333 66.368,15.088 C66.426667,15.146667 66.456,15.2186662 66.456,15.304 L66.456,16.68 C66.456,16.754667 66.485333,16.821333 66.544,16.88 C66.602667,16.938667 66.6746662,16.968 66.76,16.968 L67.8,16.968 C67.8853338,16.968 67.957333,16.997333 68.016,17.056 C68.074667,17.114667 68.104,17.1866662 68.104,17.272 L68.104,18.536 C68.104,18.610667 68.074667,18.677333 68.016,18.736 C67.957333,18.794667 67.8853338,18.824 67.8,18.824 L66.76,18.824 C66.685333,18.824 66.6160003,18.853333 66.552,18.912 C66.4879997,18.970667 66.456,19.0426662 66.456,19.128 L66.456,21.8 C66.456,22.2480022 66.5759988,22.5893322 66.816,22.824 C67.0560012,23.0586678 67.405331,23.176 67.864,23.176 C67.938667,23.176 68.0026664,23.1999998 68.056,23.248 C68.1093336,23.2960002 68.136,23.357333 68.136,23.432 L68.136,24.792 C68.136,24.8773338 68.1093336,24.9466664 68.056,25 C68.0026664,25.0533336 67.938667,25.08 67.864,25.08 Z M75.4545001,24.0874998 L75.4,24.136 C74.9839979,24.5200019 74.5733354,24.7946658 74.168,24.96 C73.7626646,25.1253342 73.3146691,25.208 72.824,25.208 C71.7253278,25.208 70.7946705,24.8000041 70.032,23.984 C69.2693295,23.1679959 68.888,22.1680059 68.888,20.984 C68.888,19.7999941 69.2746628,18.8000041 70.048,17.984 C70.8213372,17.1679959 71.7573278,16.76 72.856,16.76 C73.2400019,16.76 73.5999983,16.8239994 73.936,16.952 C74.2048013,17.0544005 74.4821327,17.2079993 74.7679995,17.4127995 L74.984,17.576 C75.058667,17.6400003 75.1279997,17.6666667 75.192,17.656 C75.2560003,17.6453333 75.288,17.5920005 75.288,17.496 L75.288,17.256 C75.288,17.1706662 75.317333,17.1013336 75.376,17.048 C75.434667,16.9946664 75.501333,16.968 75.576,16.968 L77.08,16.968 C77.1653338,16.968 77.237333,16.997333 77.296,17.056 C77.354667,17.114667 77.384,17.1866662 77.384,17.272 L77.384,22.568 C77.384,22.76 77.4186663,22.9039995 77.488,23 C77.5573337,23.0960005 77.6613326,23.1493333 77.8,23.16 C77.874667,23.1706667 77.9386664,23.1999998 77.992,23.248 C78.0453336,23.2960002 78.072,23.3519997 78.072,23.416 L78.072,24.808 C78.072,24.882667 78.0453336,24.9466664 77.992,25 C77.9386664,25.0533336 77.874667,25.08 77.8,25.08 C77.2879974,25.08 76.8666683,25.0053341 76.536,24.856 C76.2053317,24.7066659 75.9493342,24.4773349 75.768,24.168 C75.7146664,24.0826662 75.658667,24.0373334 75.6,24.032 C75.5559998,24.028 75.5075001,24.0464998 75.4545001,24.0874998 L75.4545001,24.0874998 Z M71.08,20.984 C71.08,21.6026698 71.2853313,22.1306645 71.696,22.568 C72.1066687,23.0053355 72.6053304,23.224 73.192,23.224 C73.7786696,23.224 74.2746646,23.0080022 74.68,22.576 C75.0853354,22.1439978 75.288,21.6133365 75.288,20.984 C75.288,20.3546635 75.0853354,19.8240022 74.68,19.392 C74.2746646,18.9599978 73.7786696,18.744 73.192,18.744 C72.6053304,18.744 72.1066687,18.9626645 71.696,19.4 C71.2853313,19.8373355 71.08,20.3653302 71.08,20.984 Z M82.264,25.08 C81.1759946,25.08 80.4106689,24.8693354 79.968,24.448 C79.5253311,24.0266646 79.304,23.3040051 79.304,22.28 L79.304,14.424 C79.304,14.3386662 79.333333,14.266667 79.392,14.208 C79.450667,14.149333 79.517333,14.12 79.592,14.12 L81.176,14.12 C81.2613338,14.12 81.333333,14.149333 81.392,14.208 C81.450667,14.266667 81.48,14.3386662 81.48,14.424 L81.48,22.328 C81.48,22.6053347 81.546666,22.8159993 81.68,22.96 C81.7911117,23.0800006 81.9448141,23.1500002 82.1411107,23.17 L82.264,23.176 C82.3493338,23.176 82.421333,23.205333 82.48,23.264 C82.538667,23.322667 82.568,23.3946662 82.568,23.48 L82.568,24.792 C82.568,24.866667 82.538667,24.933333 82.48,24.992 C82.421333,25.050667 82.3493338,25.08 82.264,25.08 Z M88.44,25 L86.856,25 C86.781333,25 86.714667,24.970667 86.656,24.912 C86.597333,24.853333 86.568,24.7813338 86.568,24.696 L86.568,17.272 C86.568,17.1866662 86.597333,17.114667 86.656,17.056 C86.714667,16.997333 86.781333,16.968 86.856,16.968 L88.376,16.968 C88.4613338,16.968 88.533333,16.997333 88.592,17.056 C88.650667,17.114667 88.68,17.1866662 88.68,17.272 L88.68,17.528 C88.68,17.6240005 88.7146663,17.6799999 88.784,17.696 C88.8360003,17.7080001 88.8924999,17.6915003 88.9534999,17.6465002 L89.016,17.592 C89.3360016,17.3039986 89.6533318,17.093334 89.968,16.96 C90.2826682,16.826666 90.6266648,16.76 91,16.76 C91.4693357,16.76 91.8879982,16.8613323 92.256,17.064 C92.5626682,17.2328897 92.8378514,17.472147 93.0815552,17.7817771 L93.224,17.976 C93.2666669,18.0400003 93.3093331,18.072 93.352,18.072 C93.3946669,18.072 93.4426664,18.0400003 93.496,17.976 C93.7946682,17.5813314 94.1573312,17.280001 94.584,17.072 C95.0106688,16.863999 95.4853307,16.76 96.008,16.76 C96.8613376,16.76 97.5573306,17.055997 98.096,17.648 C98.6346694,18.240003 98.904,19.0053286 98.904,19.944 L98.904,24.696 C98.904,24.770667 98.874667,24.8399997 98.816,24.904 C98.757333,24.9680003 98.6853338,25 98.6,25 L97.016,25 C96.941333,25 96.874667,24.970667 96.816,24.912 C96.757333,24.853333 96.728,24.7813338 96.728,24.696 L96.728,20.328 C96.728,19.8053307 96.6026679,19.3946682 96.352,19.096 C96.1013321,18.7973318 95.7520022,18.648 95.304,18.648 C94.8773312,18.648 94.5226681,18.8079984 94.24,19.128 C93.9573319,19.4480016 93.816,19.8319978 93.816,20.28 L93.816,24.696 C93.816,24.770667 93.786667,24.8399997 93.728,24.904 C93.669333,24.9680003 93.5973338,25 93.512,25 L91.928,25 C91.853333,25 91.786667,24.970667 91.728,24.912 C91.669333,24.853333 91.64,24.7813338 91.64,24.696 L91.64,20.328 C91.64,19.8053307 91.5146679,19.3946682 91.264,19.096 C91.0133321,18.7973318 90.6693355,18.648 90.232,18.648 C89.7946645,18.648 89.4373347,18.8053318 89.16,19.12 C88.8826653,19.4346682 88.744,19.8266643 88.744,20.296 L88.744,24.696 C88.744,24.770667 88.714667,24.8399997 88.656,24.904 C88.597333,24.9680003 88.5253338,25 88.44,25 Z M108.328,22.856 C108.061332,23.5600035 107.573337,24.1279978 106.864,24.56 C106.154663,24.9920022 105.362671,25.208 104.488,25.208 C103.282661,25.208 102.288004,24.8133373 101.504,24.024 C100.719996,23.2346627 100.328,22.2320061 100.328,21.016 C100.328,19.7999939 100.727996,18.7866707 101.528,17.976 C102.328,17.1653293 103.325327,16.76 104.52,16.76 C105.704006,16.76 106.687996,17.1679959 107.472,17.984 C108.256004,18.8000041 108.648,19.8213272 108.648,21.048 C108.648,21.2293342 108.618667,21.3626662 108.56,21.448 C108.501333,21.5333338 108.408001,21.576 108.28,21.576 L102.776,21.576 C102.712,21.576 102.664,21.5946665 102.632,21.632 C102.6,21.6693335 102.589333,21.7199997 102.6,21.784 C102.653334,22.242669 102.863998,22.6213318 103.232,22.92 C103.600002,23.2186682 104.039997,23.368 104.552,23.368 C104.850668,23.368 105.130665,23.3093339 105.392,23.192 C105.601068,23.0981329 105.787946,22.9701339 105.95264,22.8080004 L106.072,22.68 C106.157334,22.5839995 106.24,22.5173335 106.32,22.48 C106.4,22.4426665 106.488,22.424 106.584,22.424 L108.056,22.424 C108.184001,22.424 108.272,22.4639996 108.32,22.544 C108.368,22.6240004 108.370667,22.7279994 108.328,22.856 Z M102.664,20.056 C102.642667,20.130667 102.642667,20.1866665 102.664,20.224 C102.685333,20.2613335 102.728,20.28 102.792,20.28 L106.168,20.28 C106.221334,20.28 106.261333,20.2666668 106.288,20.24 C106.314667,20.2133332 106.322667,20.1680003 106.312,20.104 C106.226666,19.6666645 106.013335,19.3066681 105.672,19.024 C105.330665,18.7413319 104.936002,18.6 104.488,18.6 C104.061331,18.6 103.677335,18.7359986 103.336,19.008 C102.994665,19.2800014 102.770667,19.6293312 102.664,20.056 Z M116.3025,24.0874998 L116.248,24.136 C115.831998,24.5200019 115.421335,24.7946658 115.016,24.96 C114.610665,25.1253342 114.162669,25.208 113.672,25.208 C112.573328,25.208 111.64267,24.8000041 110.88,23.984 C110.11733,23.1679959 109.736,22.1680059 109.736,20.984 C109.736,19.7999941 110.122663,18.8000041 110.896,17.984 C111.669337,17.1679959 112.605328,16.76 113.704,16.76 C114.077335,16.76 114.431998,16.8186661 114.768,16.936 C115.104002,17.0533339 115.421332,17.2346654 115.72,17.48 C115.794667,17.5440003 115.869333,17.5626668 115.944,17.536 C116.018667,17.5093332 116.056,17.4426672 116.056,17.336 L116.056,14.424 C116.056,14.3386662 116.085333,14.266667 116.144,14.208 C116.202667,14.149333 116.269333,14.12 116.344,14.12 L117.928,14.12 C118.013334,14.12 118.085333,14.149333 118.144,14.208 C118.202667,14.266667 118.232,14.3386662 118.232,14.424 L118.232,22.568 C118.232,22.760001 118.266666,22.9039995 118.336,23 C118.405334,23.0960005 118.509333,23.1493333 118.648,23.16 C118.722667,23.1706667 118.786666,23.1999998 118.84,23.248 C118.893334,23.2960002 118.92,23.3519997 118.92,23.416 L118.92,24.808 C118.92,24.882667 118.893334,24.9466664 118.84,25 C118.786666,25.0533336 118.722667,25.08 118.648,25.08 C118.135997,25.08 117.714668,25.0053341 117.384,24.856 C117.053332,24.7066659 116.797334,24.4773349 116.616,24.168 C116.562666,24.0826662 116.506667,24.0373334 116.448,24.032 C116.404,24.028 116.3555,24.0464998 116.3025,24.0874998 L116.3025,24.0874998 Z M111.928,20.984 C111.928,21.6026698 112.133331,22.1306645 112.544,22.568 C112.954669,23.0053355 113.45333,23.224 114.04,23.224 C114.62667,23.224 115.122665,23.0080022 115.528,22.576 C115.933335,22.1439978 116.136,21.6133365 116.136,20.984 C116.136,20.3546635 115.933335,19.8240022 115.528,19.392 C115.122665,18.9599978 114.62667,18.744 114.04,18.744 C113.45333,18.744 112.954669,18.9626645 112.544,19.4 C112.133331,19.8373355 111.928,20.3653302 111.928,20.984 Z M124.312,25 L122.488,25 C122.381333,25 122.306667,24.9680003 122.264,24.904 C122.221333,24.8399997 122.216,24.7546672 122.248,24.648 L125.496,14.376 C125.517333,14.301333 125.557333,14.2400002 125.616,14.192 C125.674667,14.1439998 125.736,14.12 125.8,14.12 L127.432,14.12 C127.496,14.12 127.557333,14.1439998 127.616,14.192 C127.674667,14.2400002 127.72,14.301333 127.752,14.376 L130.28,20.856 C130.301333,20.9200003 130.338666,20.9546666 130.392,20.96 C130.432,20.964 130.463,20.9455002 130.485,20.9045002 L133.016,14.376 C133.048,14.301333 133.093333,14.2400002 133.152,14.192 C133.210667,14.1439998 133.272,14.12 133.336,14.12 L134.968,14.12 C135.032,14.12 135.093333,14.1439998 135.152,14.192 C135.210667,14.2400002 135.250667,14.301333 135.272,14.376 L138.456,24.648 C138.488,24.7440005 138.48,24.8266663 138.432,24.896 C138.384,24.9653337 138.312,25 138.216,25 L136.28,25 C136.205333,25 136.144,24.9813335 136.096,24.944 C136.048,24.9066665 136.013333,24.850667 135.992,24.776 L133.928,18.104 C133.917333,18.0399997 133.882667,18.008 133.824,18.008 C133.765333,18.008 133.725333,18.0399997 133.704,18.104 L131.272,24.728 C131.24,24.8133338 131.194667,24.8799998 131.136,24.928 C131.077333,24.9760002 131.005334,25 130.92,25 L129.784,25 C129.698666,25 129.629334,24.9786669 129.576,24.936 C129.522666,24.8933331 129.48,24.8240005 129.448,24.728 L126.936,18.104 C126.914667,18.0399997 126.88,18.008 126.832,18.008 C126.784,18.008 126.749333,18.0399997 126.728,18.104 L124.616,24.776 C124.594667,24.850667 124.557334,24.9066665 124.504,24.944 C124.450666,24.9813335 124.386667,25 124.312,25 Z M147.56,20.984 C147.56,22.1786726 147.152004,23.1813293 146.336,23.992 C145.519996,24.8026707 144.498673,25.208 143.272,25.208 C142.055994,25.208 141.037337,24.8026707 140.216,23.992 C139.394663,23.1813293 138.984,22.1786726 138.984,20.984 C138.984,19.7893274 139.391996,18.7866707 140.208,17.976 C141.024004,17.1653293 142.045327,16.76 143.272,16.76 C144.498673,16.76 145.519996,17.1626626 146.336,17.968 C147.152004,18.7733374 147.56,19.7786606 147.56,20.984 Z M141.16,20.984 C141.16,21.6026698 141.367998,22.1306645 141.784,22.568 C142.200002,23.0053355 142.695997,23.224 143.272,23.224 C143.85867,23.224 144.357331,23.0053355 144.768,22.568 C145.178669,22.1306645 145.384,21.6026698 145.384,20.984 C145.384,20.3653302 145.178669,19.8373355 144.768,19.4 C144.357331,18.9626645 143.85867,18.744 143.272,18.744 C142.695997,18.744 142.200002,18.9626645 141.784,19.4 C141.367998,19.8373355 141.16,20.3653302 141.16,20.984 Z M157.512,20.984 C157.512,22.1680059 157.133337,23.1679959 156.376,23.984 C155.618663,24.8000041 154.685339,25.208 153.576,25.208 C153.191998,25.208 152.829335,25.141334 152.488,25.008 C152.146665,24.874666 151.784002,24.6533349 151.4,24.344 C151.314666,24.2799997 151.242667,24.2613332 151.184,24.288 C151.125333,24.3146668 151.096,24.3813328 151.096,24.488 L151.096,24.696 C151.096,24.7813338 151.066667,24.853333 151.008,24.912 C150.949333,24.970667 150.882667,25 150.808,25 L149.304,25 C149.229333,25 149.16,24.9680003 149.096,24.904 C149.032,24.8399997 149,24.770667 149,24.696 L149,14.424 C149,14.3386662 149.032,14.266667 149.096,14.208 C149.16,14.149333 149.229333,14.12 149.304,14.12 L150.888,14.12 C150.962667,14.12 151.029333,14.149333 151.088,14.208 C151.146667,14.266667 151.176,14.3386662 151.176,14.424 L151.176,17.352 C151.176,17.4586672 151.210666,17.5226666 151.28,17.544 C151.349334,17.5653334 151.437333,17.538667 151.544,17.464 C151.864002,17.2293322 152.199998,17.0533339 152.552,16.936 C152.904002,16.8186661 153.266665,16.76 153.64,16.76 C154.728005,16.76 155.64533,17.1679959 156.392,17.984 C157.13867,18.8000041 157.512,19.7999941 157.512,20.984 Z M151.112,20.984 C151.112,21.6026698 151.314665,22.1279978 151.72,22.56 C152.125335,22.9920022 152.62133,23.208 153.208,23.208 C153.79467,23.208 154.295998,22.9920022 154.712,22.56 C155.128002,22.1279978 155.336,21.6026698 155.336,20.984 C155.336,20.3653302 155.128002,19.8373355 154.712,19.4 C154.295998,18.9626645 153.79467,18.744 153.208,18.744 C152.631997,18.744 152.138669,18.9626645 151.728,19.4 C151.317331,19.8373355 151.112,20.3653302 151.112,20.984 Z M161.272,14.872 C161.272,15.2026683 161.152001,15.4879988 160.912,15.728 C160.671999,15.9680012 160.386668,16.088 160.056,16.088 C159.725332,16.088 159.440001,15.9680012 159.2,15.728 C158.959999,15.4879988 158.84,15.2026683 158.84,14.872 C158.84,14.5413317 158.959999,14.2560012 159.2,14.016 C159.440001,13.7759988 159.725332,13.656 160.056,13.656 C160.386668,13.656 160.671999,13.7759988 160.912,14.016 C161.152001,14.2560012 161.272,14.5413317 161.272,14.872 Z M160.824,25 L159.24,25 C159.165333,25 159.098667,24.970667 159.04,24.912 C158.981333,24.853333 158.952,24.7813338 158.952,24.696 L158.952,17.272 C158.952,17.1866662 158.981333,17.114667 159.04,17.056 C159.098667,16.997333 159.165333,16.968 159.24,16.968 L160.824,16.968 C160.909334,16.968 160.981333,16.997333 161.04,17.056 C161.098667,17.114667 161.128,17.1866662 161.128,17.272 L161.128,24.696 C161.128,24.770667 161.098667,24.8399997 161.04,24.904 C160.981333,24.968 160.909334,25 160.824,25 Z M165.848,25.08 C164.759995,25.08 163.994669,24.8693354 163.552,24.448 C163.109331,24.0266646 162.888,23.3040051 162.888,22.28 L162.888,14.424 C162.888,14.3386662 162.917333,14.266667 162.976,14.208 C163.034667,14.149333 163.101333,14.12 163.176,14.12 L164.76,14.12 C164.845334,14.12 164.917333,14.149333 164.976,14.208 C165.034667,14.266667 165.064,14.3386662 165.064,14.424 L165.064,22.328 C165.064,22.6053347 165.130666,22.8159993 165.264,22.96 C165.375112,23.0800006 165.528814,23.1500002 165.725111,23.17 L165.848,23.176 C165.933334,23.176 166.005333,23.205333 166.064,23.264 C166.122667,23.322667 166.152,23.3946662 166.152,23.48 L166.152,24.792 C166.152,24.866667 166.122667,24.933333 166.064,24.992 C166.005333,25.050667 165.933334,25.08 165.848,25.08 Z M174.808,22.856 C174.541332,23.5600035 174.053337,24.1279978 173.344,24.56 C172.634663,24.9920022 171.842671,25.208 170.968,25.208 C169.762661,25.208 168.768004,24.8133373 167.984,24.024 C167.199996,23.2346627 166.808,22.2320061 166.808,21.016 C166.808,19.7999939 167.207996,18.7866707 168.008,17.976 C168.808,17.1653293 169.805327,16.76 171,16.76 C172.184006,16.76 173.167996,17.1679959 173.952,17.984 C174.736004,18.8000041 175.128,19.8213272 175.128,21.048 C175.128,21.2293342 175.098667,21.3626662 175.04,21.448 C174.981333,21.5333338 174.888001,21.576 174.76,21.576 L169.256,21.576 C169.192,21.576 169.144,21.5946665 169.112,21.632 C169.08,21.6693335 169.069333,21.7199997 169.08,21.784 C169.133334,22.242669 169.343998,22.6213318 169.712,22.92 C170.080002,23.2186682 170.519997,23.368 171.032,23.368 C171.330668,23.368 171.610665,23.3093339 171.872,23.192 C172.081068,23.0981329 172.267946,22.9701339 172.43264,22.8080004 L172.552,22.68 C172.637334,22.5839995 172.72,22.5173335 172.8,22.48 C172.88,22.4426665 172.968,22.424 173.064,22.424 L174.536,22.424 C174.664001,22.424 174.752,22.4639996 174.8,22.544 C174.848,22.6240004 174.850667,22.7279994 174.808,22.856 Z M169.144,20.056 C169.122667,20.130667 169.122667,20.1866665 169.144,20.224 C169.165333,20.2613335 169.208,20.28 169.272,20.28 L172.648,20.28 C172.701334,20.28 172.741333,20.2666668 172.768,20.24 C172.794667,20.2133332 172.802667,20.1680003 172.792,20.104 C172.706666,19.6666645 172.493335,19.3066681 172.152,19.024 C171.810665,18.7413319 171.416002,18.6 170.968,18.6 C170.541331,18.6 170.157335,18.7359986 169.816,19.008 C169.474665,19.2800014 169.250667,19.6293312 169.144,20.056 Z M178.664,25 L177,25 C176.925333,25 176.858667,24.970667 176.8,24.912 C176.741333,24.853333 176.712,24.7813338 176.712,24.696 L176.712,14.424 C176.712,14.3386662 176.741333,14.266667 176.8,14.208 C176.858667,14.149333 176.925333,14.12 177,14.12 L182.04,14.12 C183.224006,14.12 184.16533,14.4453301 184.864,15.096 C185.56267,15.7466699 185.912,16.6213278 185.912,17.72 C185.912,18.786672 185.533337,19.6613299 184.776,20.344 C184.018663,21.0266701 183.069339,21.368 181.928,21.368 L179.256,21.368 C179.16,21.368 179.088,21.3946664 179.04,21.448 C178.992,21.5013336 178.968,21.5759995 178.968,21.672 L178.968,24.696 C178.968,24.770667 178.938667,24.8399997 178.88,24.904 C178.821333,24.9680003 178.749334,25 178.664,25 Z M179.24,19.512 L181.928,19.512 C182.418669,19.512 182.826665,19.3360018 183.152,18.984 C183.477335,18.6319982 183.64,18.2160024 183.64,17.736 C183.64,17.2453309 183.482668,16.837335 183.168,16.512 C182.853332,16.186665 182.440003,16.024 181.928,16.024 L179.24,16.024 C179.144,16.024 179.074667,16.0479998 179.032,16.096 C178.989333,16.1440002 178.968,16.2159995 178.968,16.312 L178.968,19.224 C178.968,19.3200005 178.989333,19.3919998 179.032,19.44 C179.074667,19.4880002 179.144,19.512 179.24,19.512 Z M193.4065,24.0874998 L193.352,24.136 C192.935998,24.5200019 192.525335,24.7946658 192.12,24.96 C191.714665,25.1253342 191.266669,25.208 190.776,25.208 C189.677328,25.208 188.74667,24.8000041 187.984,23.984 C187.22133,23.1679959 186.84,22.1680059 186.84,20.984 C186.84,19.7999941 187.226663,18.8000041 188,17.984 C188.773337,17.1679959 189.709328,16.76 190.808,16.76 C191.192002,16.76 191.551998,16.8239994 191.888,16.952 C192.156801,17.0544005 192.434133,17.2079993 192.719999,17.4127995 L192.936,17.576 C193.010667,17.6400003 193.08,17.6666667 193.144,17.656 C193.208,17.6453333 193.24,17.5920005 193.24,17.496 L193.24,17.256 C193.24,17.1706662 193.269333,17.1013336 193.328,17.048 C193.386667,16.9946664 193.453333,16.968 193.528,16.968 L195.032,16.968 C195.117334,16.968 195.189333,16.997333 195.248,17.056 C195.306667,17.114667 195.336,17.1866662 195.336,17.272 L195.336,22.568 C195.336,22.76 195.370666,22.9039995 195.44,23 C195.509334,23.0960005 195.613333,23.1493333 195.752,23.16 C195.826667,23.1706667 195.890666,23.1999998 195.944,23.248 C195.997334,23.2960002 196.024,23.3519997 196.024,23.416 L196.024,24.808 C196.024,24.882667 195.997334,24.9466664 195.944,25 C195.890666,25.0533336 195.826667,25.08 195.752,25.08 C195.239997,25.08 194.818668,25.0053341 194.488,24.856 C194.157332,24.7066659 193.901334,24.4773349 193.72,24.168 C193.666666,24.0826662 193.610667,24.0373334 193.552,24.032 C193.508,24.028 193.4595,24.0464998 193.4065,24.0874998 L193.4065,24.0874998 Z M189.032,20.984 C189.032,21.6026698 189.237331,22.1306645 189.648,22.568 C190.058669,23.0053355 190.55733,23.224 191.144,23.224 C191.73067,23.224 192.226665,23.0080022 192.632,22.576 C193.037335,22.1439978 193.24,21.6133365 193.24,20.984 C193.24,20.3546635 193.037335,19.8240022 192.632,19.392 C192.226665,18.9599978 191.73067,18.744 191.144,18.744 C190.55733,18.744 190.058669,18.9626645 189.648,19.4 C189.237331,19.8373355 189.032,20.3653302 189.032,20.984 Z M197.144,28.12 C197.069333,28.12 197,28.090667 196.936,28.032 C196.872,27.973333 196.84,27.9013338 196.84,27.816 L196.84,26.52 C196.84,26.445333 196.869333,26.378667 196.928,26.32 C196.986667,26.261333 197.058666,26.232 197.144,26.232 C197.709336,26.232 198.207998,26.0906681 198.64,25.808 C199.072002,25.5253319 199.341333,25.154669 199.448,24.696 C199.48,24.5893328 199.490667,24.4880005 199.48,24.392 C199.469333,24.2959995 199.437334,24.1840006 199.384,24.056 L196.44,17.4 C196.397333,17.2826661 196.402666,17.1813338 196.456,17.096 C196.509334,17.0106662 196.589333,16.968 196.696,16.968 L198.28,16.968 C198.344,16.968 198.402666,16.9919998 198.456,17.04 C198.509334,17.0880002 198.557333,17.1599995 198.6,17.256 L200.44,21.512 C200.514667,21.6826675 200.594666,21.7653334 200.68,21.76 C200.765334,21.7546666 200.845333,21.6666675 200.92,21.496 L202.68,17.224 C202.712,17.1279995 202.752,17.0613335 202.8,17.024 C202.848,16.9866665 202.909333,16.968 202.984,16.968 L204.504,16.968 C204.610667,16.968 204.693333,17.0079996 204.752,17.088 C204.810667,17.1680004 204.818667,17.2559995 204.776,17.352 L201.752,24.536 C201.186664,25.86934 200.56267,26.7999974 199.88,27.328 C199.19733,27.8560026 198.285339,28.12 197.144,28.12 Z" id="BetalmedMobilePay" fill="#FFFFFF" fill-rule="nonzero"></path>
                <g id="Logo-/-monochrome-/-symbol-/-white" transform="translate(18.599998, 9.000000)" fill="#FFFFFF">
                    <g id="Logo_monochrome_lines" transform="translate(0.647059, 0.323529)">
                        <path d="M10.0294118,14.1616609 C11.8215541,13.6154874 13.3377365,13.3408642 14.5779589,13.3377914 C16.6283927,13.3327111 18.3475044,13.7397219 19.7352941,14.5588235 L19.7352941,8.60222539 C18.3404585,7.87995624 16.7644391,7.49440574 15.0072358,7.44557389 C13.2500325,7.39674205 11.5907579,7.75460564 10.0294118,8.51916468 L10.0294118,14.1616609 Z" id="Path-4"></path>
                        <path d="M7.11764706,7.67626863 L9.32948248,12.9411765 L9.32948248,7.89545711 C10.4948405,7.27141609 11.7285529,6.87149072 13.0306196,6.69568101 C14.3326863,6.5198713 15.8126758,6.54821672 17.4705882,6.78071728 L16.267627,3.90650603 C14.5248603,3.79396102 12.864664,4.07473154 11.2870382,4.74881758 C9.7094123,5.42290362 8.31961526,6.39872064 7.11764706,7.67626863 Z" id="Path-4"></path>
                        <path d="M13.9117647,5.51631313 C13.9117647,5.00829462 13.9117647,4.24626686 13.9117647,3.23022985 C13.9117647,2.16094461 13.050212,1.29411765 11.9874328,1.29411765 L5.48315539,1.29411765 C4.42037625,1.29411765 3.55882353,2.16094461 3.55882353,3.23022985 L3.55882353,18.4462407 C3.55882353,19.515526 4.42037625,20.3823529 5.48315539,20.3823529 L11.9874328,20.3823529 C13.050212,20.3823529 13.9117647,19.515526 13.9117647,18.4462407 C13.9117647,17.4826081 13.9117647,16.8538027 13.9117647,16.5598246 C13.6166079,16.4172834 13.3997009,16.315314 13.2610437,16.2539166 C13.1146147,16.1890777 12.9038924,16.1016925 12.6288768,15.9917611 C12.6288768,16.3705593 12.6288768,17.1887191 12.6288768,18.4462407 C12.6288768,18.8026692 12.3416926,19.0916115 11.9874328,19.0916115 L5.48315539,19.0916115 C5.12889568,19.0916115 4.84171144,18.8026692 4.84171144,18.4462407 L4.84171144,3.23022985 C4.84171144,2.87380144 5.12889568,2.58485912 5.48315539,2.58485912 L11.9874328,2.58485912 C12.3416926,2.58485912 12.6288768,2.87380144 12.6288768,3.23022985 L12.6288768,5.54093026 C12.9305556,5.52189711 13.160039,5.51315357 13.3173272,5.51469965 C13.4746154,5.51624573 13.6727612,5.51678356 13.9117647,5.51631313 Z" id="Path-5" fill-rule="nonzero" transform="translate(8.735294, 10.838235) rotate(-22.400000) translate(-8.735294, -10.838235) "></path>
                    </g>
                </g>
            </g>
        </g>
    </g>
</svg>